<svg id="Logo" xmlns="http://www.w3.org/2000/svg" width="251.438" height="40.287" viewBox="0 0 220 35.25">
  <defs>
    <style>
      .cls-1 {
        fill: #3cd8ed;
      }

      .cls-1, .cls-2 {
        fill-rule: evenodd;
      }

      .cls-2 {
        fill: #1b232f;
      }
    </style>
  </defs>
  <path class="cls-1" d="M392.634,5168a17.62,17.62,0,1,0,17.633,17.62A17.628,17.628,0,0,0,392.634,5168Zm-9.622,25.05a1.57,1.57,0,1,1,1.57-1.57A1.568,1.568,0,0,1,383.012,5193.05Zm1.382-3.42a1.969,1.969,0,0,0-2.148-.3l1.436-6.81h1.155l0.563,2.68Zm14.265,3.42a1.57,1.57,0,1,1,1.569-1.57A1.569,1.569,0,0,1,398.659,5193.05Zm4.656-12.45h-5.5a0.622,0.622,0,0,0-.738.54l-0.483,2.13h5.6l-0.349,2.35h-5.757l-0.362,1.58c-0.2.74,0.335,0.62,0.335,0.62h5.784l-0.524,2.48h-0.657a1.847,1.847,0,0,0-1.409-1.11,2.493,2.493,0,0,0-2.429,1.11H393.9a1.34,1.34,0,0,1-1.168-1.34l1.141-5.85-4.388,7.23-2.161-.07-1.664-8.45a2.412,2.412,0,0,0-1.409-1.75l-2.134-1.06a0.9,0.9,0,0,1-.6-0.82h3.878a2.763,2.763,0,0,1,2.429,1.51l1.342,6.86,4.025-6.52a3.381,3.381,0,0,1,2.685-1.85h7.971Z" transform="translate(-375 -5168)"/>
  <path class="cls-2" d="M430.22,5184.67l0.273-2.64h-0.106l-0.805,2.21-2.81,4.95h-0.82l-3.038-4.97-0.82-2.11h-0.106l0.379,2.62v6.91H420v-13.36h2.355l3.523,6.13,0.622,1.53h0l0.578-1.53,3.326-6.04h2.339v13.28h-2.582Zm4.83-6.39h7.821v2.31h-5.239v3.07H442.4v2.31h-4.769v3.25h5.33v2.31H435.05v-13.25Zm9.826,0,0.9-.11h2.947a8.064,8.064,0,0,1,3.037.5,4.992,4.992,0,0,1,2.005,1.38,5.669,5.669,0,0,1,1.139,2.13,10.073,10.073,0,0,1,.364,2.62,9.815,9.815,0,0,1-.333,2.61,6.112,6.112,0,0,1-1.185,2.22,5.582,5.582,0,0,1-2.081,1.53,7.44,7.44,0,0,1-3.19.6h-2.87l-0.729-.07v-13.41Zm4.04,2.11h-1.458v8.92h1.276a3.777,3.777,0,0,0,1.807-.4,3.088,3.088,0,0,0,1.154-1.03,4.535,4.535,0,0,0,.593-1.53,9.056,9.056,0,0,0,.167-1.73,7.708,7.708,0,0,0-.152-1.53,4.091,4.091,0,0,0-.562-1.43,3.012,3.012,0,0,0-1.093-1.01A3.541,3.541,0,0,0,448.916,5180.39Zm8.4-2.11H459.9v13.28h-2.582v-13.28Zm14.019,12.75a4.166,4.166,0,0,1-1.519.61,10.238,10.238,0,0,1-1.914.18,6.871,6.871,0,0,1-2.248-.36,4.871,4.871,0,0,1-1.868-1.2,5.876,5.876,0,0,1-1.291-2.14,9.493,9.493,0,0,1-.471-3.21,8.524,8.524,0,0,1,.532-3.26,5.656,5.656,0,0,1,1.4-2.13,5.191,5.191,0,0,1,1.944-1.17,7.2,7.2,0,0,1,2.111-.35,12.256,12.256,0,0,1,1.914.15,8.241,8.241,0,0,1,1.291.37l-0.516,2.21a3.3,3.3,0,0,0-1.018-.31,9.644,9.644,0,0,0-1.519-.09,3.037,3.037,0,0,0-2.506,1.12,5.281,5.281,0,0,0-.957,3.48,7.234,7.234,0,0,0,.228,1.87,4.188,4.188,0,0,0,.683,1.53,3.153,3.153,0,0,0,1.155.93,3.629,3.629,0,0,0,1.519.33,5.191,5.191,0,0,0,1.519-.17,4.713,4.713,0,0,0,1.017-.43Zm7.26-2.41h-4.04l-1.064,2.94h-2.5l4.738-13.45h1.9l4.739,13.39h-2.7Zm-3.388-2.08h2.84l-0.971-2.98-0.395-2.08h-0.152l-0.4,2.11Zm16.631,5.02H483.5v-13.28h2.568v10.97h5.771v2.31Zm5.787-13.28h7.169v1.36h-5.605v4.35h5.133v1.41h-5.133v4.72h5.7v1.41h-7.26v-13.25Zm9.538,6.63a8.1,8.1,0,0,1,1.4-5.09,4.693,4.693,0,0,1,3.964-1.71,5.585,5.585,0,0,1,2.415.49,4.6,4.6,0,0,1,1.684,1.39,6.15,6.15,0,0,1,.988,2.16,11.626,11.626,0,0,1,.319,2.82,8.145,8.145,0,0,1-1.4,5.11,4.82,4.82,0,0,1-4.01,1.77,5.374,5.374,0,0,1-2.369-.49,4.853,4.853,0,0,1-1.732-1.45,6.4,6.4,0,0,1-.988-2.18A11.439,11.439,0,0,1,507.162,5184.91Zm1.655,0a9.37,9.37,0,0,0,.228,2.1,5.434,5.434,0,0,0,.669,1.73,3.392,3.392,0,0,0,1.154,1.2,3.018,3.018,0,0,0,1.656.43,3.24,3.24,0,0,0,2.749-1.33,6.917,6.917,0,0,0,1-4.14,10.115,10.115,0,0,0-.257-2.06,5.663,5.663,0,0,0-.639-1.67,3.487,3.487,0,0,0-1.17-1.19,2.958,2.958,0,0,0-1.684-.46,3.2,3.2,0,0,0-2.72,1.35A6.97,6.97,0,0,0,508.817,5184.91Zm10.54,9.9a5.265,5.265,0,0,1-.88.19q-0.432.015-.866,0a10.308,10.308,0,0,1-1.838-.2c-0.592-.14-1.17-0.28-1.731-0.45l-1.61-.43a5.985,5.985,0,0,0-1.518-.2,3.593,3.593,0,0,0-.866.11v-1.38a4.183,4.183,0,0,1,.5-0.09,2.218,2.218,0,0,1,.515,0,5.979,5.979,0,0,1,1.518.2c0.517,0.14,1.049.27,1.52,0.44s1.093,0.29,1.654.43a7.107,7.107,0,0,0,1.778.2,6.99,6.99,0,0,0,1.822-.2v1.38Zm8.809-16.53h1.52v8.85a6.364,6.364,0,0,1-.305,2.07,3.522,3.522,0,0,1-2.278,2.27,5.636,5.636,0,0,1-1.776.26,5.1,5.1,0,0,1-3.525-1.06,4.121,4.121,0,0,1-1.23-3.23v-9.19h1.52v8.42a6.118,6.118,0,0,0,.2,1.71,2.5,2.5,0,0,0,.593,1.11,2.289,2.289,0,0,0,.986.62,4.979,4.979,0,0,0,1.383.2,2.592,2.592,0,0,0,2.186-.86,4.662,4.662,0,0,0,.655-2.78Zm5.044,0h1.518v13.28H533.21v-13.28Zm5.118,0.12a11.126,11.126,0,0,1,1.518-.23h1.641a7.9,7.9,0,0,1,1.747.17,4.453,4.453,0,0,1,1.64.63,3.473,3.473,0,0,1,1.185,1.25,3.839,3.839,0,0,1,.469,2.02,4.409,4.409,0,0,1-.44,2.06,3.876,3.876,0,0,1-1.139,1.36,4.98,4.98,0,0,1-1.641.75,8.09,8.09,0,0,1-1.9.22h-1.549v5.06h-1.518Zm3.219,1.09h-0.942a3.428,3.428,0,0,0-.713.09v5.52h1.472a7.606,7.606,0,0,0,1.261-.13,3.332,3.332,0,0,0,1.139-.44,2.293,2.293,0,0,0,.821-0.92,3.058,3.058,0,0,0,.318-1.53,2.622,2.622,0,0,0-.3-1.31,2.2,2.2,0,0,0-.759-0.82,2.769,2.769,0,0,0-1.094-.45A5.35,5.35,0,0,0,541.547,5179.49Zm17.421,3.21,0.2-1.99h-0.092l-0.713,1.83-3.434,5.99h-0.469l-3.63-6.02-0.685-1.8h-0.09l0.258,1.96v8.95h-1.519v-13.34h1.17l4.115,6.78,0.623,1.54h0l0.592-1.54,3.935-6.75h1.215v13.28h-1.52Zm4.768-4.42h7.169v1.36h-5.6v4.35h5.133v1.41H565.3v4.72H571v1.41h-7.261v-13.25Zm12.455,4.59-0.942-1.93h0l0.2,1.93v8.69h-1.518v-13.45h0.835l6.3,8.87,0.866,1.85h0.089l-0.2-1.82v-8.73h1.518v13.5h-0.82Zm18.8-3.23h-4.1v11.89h-1.519v-11.89h-4.1v-1.39h9.721v1.39Z" transform="translate(-375 -5168)"/>
</svg>
